<?xml version="1.0" encoding="utf-8"?>

<!DOCTYPE svg PUBLIC "-//W3C//DTD SVG 1.1//EN" "http://www.w3.org/Graphics/SVG/1.1/DTD/svg11.dtd">
<svg version="1.1" id="Layer_1" xmlns="http://www.w3.org/2000/svg" xmlns:xlink="http://www.w3.org/1999/xlink" x="0px" y="0px"
	 viewBox="0 0 1591.728 1656.889" enable-background="new 0 0 1591.728 1656.889" xml:space="preserve">
<path id="path44265" d="M1564.402,576.232 M1267.908,168.143 M1509.595,594.039c0.244-0.436,0.524-0.895,0.838-1.376l2.614-4
	l-9.147-4.54c-11.975-5.944-16.188-6.02-25.565-0.457c-12.094,7.174-15.571,8.597-21.934,8.972
	c-6.915,0.408-9.07,1.459-11.013,5.373c-1.551,3.124-2.323,3.455-4.21,1.812c-3.631-3.163,0.193-13.216,7.641-20.086
	c4.837-4.462,20.908-7.762,30.471-6.258c7.969,1.254,6.135-0.704-6.599-7.045c-21.445-10.679-28.323-11.252-41.43-3.448
	c-7.695,4.583-8.952,4.974-15.951,4.963c-5.683-0.009-8.292,0.544-10.354,2.195c-3.54,2.834-5.823,1.711-6.239-3.072
	c-1.069-12.287,20.346-22.541,36.224-17.344c9.87,3.23,2.599-1.789-14.516-10.021c-21.273-10.232-23.458-10.568-31.984-4.943
	c-5.885,3.883-10.373,5.383-17.323,5.795c-3.337,0.198-6.871,1.102-7.853,2.011c-2.905,2.688-4.549,2.234-5.508-1.526
	c-2.217-8.697,12.256-18.711,23.857-16.507c11.396,2.165,0.707-4.324-11.548-7.011c-4.07-0.892-10.244-2.42-13.718-3.397
	c-3.474-0.977-8.418-2.362-10.987-3.077c-7.403-2.06-15.193-6.317-21.951-11.998c-22.029-18.519-22.712-18.956-27.657-17.696
	c-7.631,1.944-13.037-4.066-9.701-10.785c3.715-7.483,12.783-6.934,15.572,0.944c1.743,4.925,1.952,5.03,14.622,7.39
	c23.924,4.456,38.804,12.4,58.097,31.017c4.095,3.951,18.45,11.832,18.671,10.251c0.108-0.774-1.345-2.752-3.229-4.396
	c-14.838-12.948-18.241-29.937-7.023-35.073l2.683-1.228l0.07,3.304c0.054,2.477,1.343,4.735,5.152,9.034
	c5.954,6.72,7.602,10.929,7.452,19.033c-0.128,6.906,1.33,9.825,7.496,15.008c5.763,4.844,37.932,22.318,38.603,20.968
	c0.259-0.522-0.228-1.301-1.079-1.733c-12.315-6.241-21.213-29.037-15.711-40.249c3.837-7.819,10.314-9.87,9.875-3.126
	c-0.181,2.776,0.64,4.983,3.049,8.213c4.722,6.329,6.733,11.933,6.66,18.552c-0.108,9.81,3.411,17.633,10.967,24.379
	c8.056,7.193,34.379,20.289,27.636,13.75c-0.72-0.698-1.934-2.016-2.699-2.929c-0.765-0.913-3.125-3.704-5.243-6.202
	c-7.152-8.433-9.759-24.96-5.333-33.81c3.697-7.394,9.794-10.492,7.974-4.052c-1.079,3.821-0.59,5.224,4.765,13.686
	c3.924,6.201,5.67,12.953,5.409,20.912c-0.365,11.134,4.185,18.529,15.723,25.555c8.913,5.428,11.197,5.85,10.073,1.862
	c-0.37-1.312-0.088-3.564,0.628-5.005c2.666-5.371,9.334-6.259,9.487-1.263c0.094,3.05,1.657,3.617,8.302,3.012
	c5.796-0.528,10.379,0.291,14.313,2.86c-1.672,4.391-4.899,7.747-9.898,10.727c-5.731,3.416-6.663,4.794-4.946,7.316
	c2.813,4.131-3.104,7.333-8.418,4.554c-1.426-0.745-2.978-2.402-3.45-3.681c-1.434-3.887-3.034-2.203-7.054,7.427
	c-5.204,12.465-4.539,21.123,2.301,29.916c4.889,6.285,7.446,12.774,7.916,20.097c0.642,9.993,1.071,11.416,4.19,13.873
	c5.257,4.141-1.496,5.218-8.833,1.409c-8.783-4.559-16.388-19.462-15.559-30.488c0.246-3.266,0.514-6.911,0.597-8.099
	c0.082-1.188,0.29-2.968,0.462-3.956c1.611-9.254-11.987,16.813-14.276,27.368c-2.147,9.899-0.396,18.297,5.458,26.169
	c3.95,5.312,5.617,11.028,5.517,18.924c-0.051,4.029,0.583,6.297,2.36,8.437c4.319,5.198-2.126,7.346-9.826,3.276
	c-11.041-5.836-17.241-29.509-10.947-41.797c0.435-0.85,0.371-1.766-0.145-2.036c-1.336-0.698-17.091,32.347-18.906,39.653
	c-1.942,7.818-1.406,11.036,2.757,16.548c4.885,6.467,6.026,10.841,5.159,19.778c-0.555,5.717-0.271,8.301,1.141,10.337l1.885,2.714
	l-2.893,0.583c-12.094,2.438-19.328-13.306-14.934-32.503c0.558-2.437,0.571-4.892,0.028-5.454
	c-1.109-1.149-8.089,13.664-9.08,19.268c-4.666,26.401-12.035,41.575-28.771,59.242c-8.864,9.357-8.97,9.565-7.486,14.574
	c2.374,8.012-4.639,13.787-12.043,9.916c-6.649-3.475-5.808-11.515,1.509-14.428c4.741-1.887,5.037-2.642,11.973-30.573
	c2.128-8.568,5.928-16.591,10.706-22.609c1.658-2.088,4.843-6.115,7.08-8.947c2.237-2.832,6.333-7.697,9.102-10.812
	c8.335-9.377,13.168-20.91,5.221-12.459c-8.09,8.602-25.685,9.008-29.003,0.669c-1.435-3.605-0.372-4.94,3.559-4.472
	c1.328,0.158,4.719-1.188,7.535-2.989c5.864-3.752,10.377-5.177,17.421-5.494c10.204-0.46,11.774-2.017,22.97-22.799
	c9.008-16.72,11.939-25.054,5.853-16.64c-9.792,13.537-33.143,17.829-39.501,7.26c-2.475-4.114-1.288-6.365,3.242-6.153
	c2.638,0.123,5.074-0.962,9.667-4.31c5.656-4.123,6.902-4.545,15.822-5.361c15.191-1.39,20.418-5.896,31.491-27.141
	c6.575-12.615,6.908-15.277,1.198-9.579c-6.853,6.838-21.793,13.615-28.33,12.848c-10.064-1.18-19.067-7.066-17.988-11.759
	c0.56-2.438,1.38-2.625,4.471-1.009c3.872,2.024,6.234,1.608,12.068-2.127c5.368-3.436,9.017-4.329,23.019-5.634
	c10.855-1.012,14.22-3.549,20.414-15.397l4.731-9.049l-4.466-1.7C1510.545,594.455,1510.049,594.248,1509.595,594.039z
	 M1509.595,1062.849c0.454-0.209,0.95-0.416,1.487-0.621l4.466-1.7l-4.731-9.049c-6.194-11.848-9.558-14.385-20.414-15.397
	c-14.001-1.305-17.65-2.198-23.019-5.634c-5.834-3.735-8.196-4.151-12.068-2.126c-3.091,1.616-3.91,1.43-4.471-1.009
	c-1.079-4.693,7.925-10.578,17.988-11.759c6.536-0.767,21.477,6.01,28.33,12.848c5.71,5.698,5.378,3.037-1.198-9.579
	c-11.073-21.245-16.3-25.751-31.491-27.141c-8.919-0.816-10.166-1.238-15.822-5.36c-4.593-3.348-7.028-4.434-9.667-4.31
	c-4.53,0.212-5.717-2.039-3.242-6.153c6.357-10.568,29.709-6.277,39.501,7.26c6.086,8.414,3.155,0.08-5.853-16.64
	c-11.196-20.782-12.766-22.339-22.97-22.799c-7.043-0.318-11.557-1.742-17.421-5.494c-2.816-1.802-6.207-3.147-7.535-2.989
	c-3.931,0.467-4.994-0.867-3.559-4.472c3.318-8.339,20.914-7.933,29.003,0.669c7.947,8.451,3.114-3.083-5.221-12.459
	c-2.769-3.114-6.865-7.979-9.102-10.812c-2.237-2.832-5.422-6.859-7.08-8.947c-4.778-6.018-8.578-14.041-10.706-22.609
	c-6.937-27.931-7.233-28.686-11.973-30.573c-7.317-2.912-8.157-10.952-1.509-14.428c7.404-3.871,14.417,1.904,12.043,9.916
	c-1.484,5.009-1.378,5.217,7.486,14.574c16.736,17.667,24.105,32.841,28.771,59.242c0.99,5.603,7.971,20.417,9.08,19.268
	c0.543-0.563,0.529-3.017-0.028-5.455c-4.394-19.197,2.839-34.941,14.934-32.503l2.893,0.583l-1.885,2.714
	c-1.412,2.036-1.696,4.62-1.141,10.337c0.867,8.936-0.274,13.31-5.159,19.778c-4.163,5.512-4.699,8.73-2.757,16.548
	c1.815,7.306,17.57,40.351,18.906,39.653c0.516-0.27,0.581-1.186,0.145-2.036c-6.294-12.288-0.094-35.96,10.947-41.797
	c7.7-4.071,14.145-1.922,9.826,3.276c-1.778,2.139-2.411,4.408-2.36,8.437c0.1,7.895-1.567,13.611-5.517,18.924
	c-5.854,7.872-7.605,16.27-5.458,26.169c2.29,10.554,15.887,36.621,14.276,27.368c-0.172-0.987-0.379-2.768-0.462-3.956
	c-0.082-1.188-0.351-4.833-0.597-8.099c-0.829-11.026,6.776-25.929,15.559-30.488c7.337-3.809,14.09-2.732,8.833,1.409
	c-3.119,2.457-3.548,3.88-4.19,13.873c-0.47,7.323-3.027,13.812-7.916,20.097c-6.84,8.793-7.505,17.451-2.301,29.916
	c4.021,9.63,5.62,11.314,7.054,7.427c0.472-1.279,2.024-2.935,3.45-3.681c5.314-2.778,11.231,0.423,8.418,4.554
	c-1.717,2.523-0.786,3.901,4.946,7.316c4.999,2.98,8.226,6.336,9.898,10.727c-3.933,2.569-8.517,3.388-14.313,2.86
	c-6.644-0.605-8.208-0.038-8.302,3.012c-0.153,4.996-6.821,4.108-9.487-1.263c-0.715-1.441-0.998-3.693-0.628-5.005
	c1.124-3.988-1.16-3.566-10.073,1.862c-11.537,7.026-16.088,14.421-15.723,25.555c0.261,7.958-1.485,14.711-5.409,20.912
	c-5.354,8.462-5.844,9.865-4.765,13.686c1.819,6.44-4.277,3.342-7.974-4.052c-4.426-8.851-1.819-25.378,5.333-33.81
	c2.119-2.498,4.478-5.289,5.243-6.202c0.765-0.913,1.979-2.231,2.699-2.929c6.743-6.539-19.58,6.557-27.636,13.75
	c-7.556,6.746-11.075,14.569-10.967,24.379c0.073,6.62-1.938,12.224-6.66,18.552c-2.409,3.229-3.23,5.437-3.049,8.213
	c0.439,6.744-6.038,4.694-9.875-3.126c-5.502-11.212,3.396-34.007,15.711-40.249c0.852-0.432,1.338-1.211,1.079-1.733
	c-0.67-1.35-32.84,16.124-38.603,20.968c-6.166,5.183-7.624,8.102-7.496,15.008c0.151,8.103-1.497,12.313-7.452,19.033
	c-3.809,4.299-5.098,6.557-5.152,9.034l-0.07,3.304l-2.683-1.228c-11.218-5.136-7.815-22.125,7.023-35.073
	c1.884-1.644,3.337-3.622,3.229-4.396c-0.221-1.582-14.576,6.3-18.671,10.251c-19.293,18.617-34.173,26.561-58.097,31.017
	c-12.67,2.36-12.879,2.465-14.622,7.39c-2.789,7.878-11.857,8.427-15.572,0.944c-3.336-6.72,2.07-12.73,9.701-10.785
	c4.945,1.26,5.628,0.823,27.657-17.696c6.758-5.681,14.548-9.938,21.951-11.998c2.568-0.715,7.513-2.1,10.987-3.077
	c3.474-0.977,9.648-2.505,13.718-3.397c12.255-2.687,22.944-9.176,11.548-7.011c-11.601,2.204-26.074-7.81-23.857-16.506
	c0.958-3.76,2.603-4.215,5.508-1.526c0.981,0.908,4.516,1.813,7.853,2.011c6.95,0.411,11.438,1.912,17.323,5.795
	c8.526,5.625,10.711,5.289,31.984-4.943c17.115-8.232,24.385-13.252,14.516-10.021c-15.878,5.196-37.293-5.057-36.224-17.344
	c0.416-4.783,2.699-5.906,6.239-3.072c2.062,1.651,4.671,2.204,10.354,2.195c6.999-0.011,8.256,0.38,15.951,4.963
	c13.106,7.805,19.984,7.232,41.43-3.448c12.734-6.341,14.568-8.299,6.599-7.045c-9.563,1.504-25.634-1.796-30.471-6.258
	c-7.448-6.87-11.272-16.924-7.641-20.086c1.887-1.643,2.659-1.312,4.21,1.812c1.943,3.914,4.098,4.965,11.013,5.373
	c6.363,0.375,9.84,1.798,21.934,8.972c9.377,5.562,13.59,5.487,25.565-0.458l9.147-4.54l-2.614-4
	C1510.119,1063.744,1509.84,1063.285,1509.595,1062.849z M1234.036,1442.125c0.49,0.098,1.013,0.222,1.568,0.372l4.612,1.249
	l1.491-10.102c1.953-13.226,0.723-17.256-7.465-24.455c-10.56-9.285-12.988-12.152-15.311-18.088
	c-2.525-6.451-4.191-8.175-8.513-8.814c-3.45-0.509-4.004-1.142-3.024-3.444c1.886-4.431,12.629-3.9,21.464,1.061
	c5.739,3.222,13.843,17.486,15.367,27.046c1.27,7.966,2.566,5.618,4.661-8.453c3.53-23.696,1.949-30.414-9.524-40.467
	c-6.736-5.903-7.497-6.977-9.649-13.636c-1.748-5.408-3.08-7.718-5.287-9.169c-3.79-2.491-3.426-5.01,0.994-6.883
	c11.355-4.813,27.725,12.385,27.689,29.092c-0.022,10.385,2.505,1.919,5.045-16.902c3.158-23.394,2.802-25.576-5.182-31.946
	c-5.511-4.397-8.325-8.202-10.864-14.685c-1.219-3.112-3.172-6.194-4.339-6.847c-3.455-1.932-3.53-3.636-0.251-5.71
	c7.586-4.796,21.583,5.875,23.071,17.589c1.462,11.508,4.331-0.663,3.099-13.149c-0.409-4.147-0.864-10.49-1.008-14.097
	c-0.145-3.606-0.355-8.736-0.469-11.4c-0.328-7.677,1.313-16.402,4.628-24.584c10.806-26.673,11.01-27.458,8.284-31.772
	c-4.208-6.656-0.162-13.655,7.26-12.559c8.265,1.22,10.545,10.014,3.915,15.101c-4.145,3.18-4.181,3.411-2.51,16.19
	c3.155,24.13,0.198,40.737-11.546,64.839c-2.492,5.115-5.552,21.203-3.979,20.925c0.77-0.136,2.202-2.13,3.183-4.43
	c7.729-18.113,22.835-26.599,31.186-17.517l1.997,2.172l-3.12,1.088c-2.339,0.817-4.088,2.74-6.999,7.692
	c-4.551,7.74-8.045,10.607-15.798,12.968c-6.608,2.012-8.933,4.301-11.957,11.767c-2.826,6.978-9.503,42.972-8.013,43.193
	c0.576,0.085,1.167-0.619,1.314-1.562c2.13-13.641,21.061-29.148,33.424-27.38c8.623,1.233,12.574,6.759,6.024,8.426
	c-2.695,0.686-4.542,2.149-6.868,5.438c-4.56,6.446-9.268,10.091-15.587,12.067c-9.363,2.928-15.716,8.693-19.797,17.963
	c-4.351,9.884-8.672,38.966-4.537,30.532c0.441-0.9,1.32-2.462,1.952-3.472s2.557-4.116,4.278-6.903
	c5.81-9.408,20.723-16.994,30.508-15.52c8.175,1.231,13.005,6.072,6.318,6.332c-3.967,0.154-5.151,1.054-11.544,8.761
	c-4.685,5.648-10.567,9.395-18.217,11.606c-10.701,3.093-16.329,9.706-19.445,22.85c-2.408,10.154-2.103,12.457,1.342,10.155
	c1.133-0.757,3.363-1.185,4.954-0.95c5.932,0.876,8.837,6.943,4.133,8.633c-2.872,1.031-2.928,2.694-0.299,8.826
	c2.293,5.349,2.93,9.961,1.703,14.496c-4.693-0.234-8.882-2.265-13.261-6.099c-5.02-4.395-6.618-4.855-8.487-2.443
	c-3.06,3.952-7.933-0.686-6.933-6.599c0.268-1.586,1.364-3.574,2.434-4.418c3.253-2.565,1.158-3.566-9.243-4.414
	c-13.464-1.098-21.492,2.211-27.741,11.432c-4.467,6.592-9.849,11.029-16.667,13.739c-9.306,3.698-10.527,4.546-11.899,8.271
	c-2.313,6.279-5.425,0.19-4.07-7.966c1.622-9.762,13.445-21.6,24.188-24.219c3.182-0.776,6.731-1.646,7.887-1.935
	s2.913-0.642,3.905-0.783c9.299-1.327-19.695-6.204-30.44-5.12c-10.078,1.017-17.524,5.277-23.202,13.277
	c-3.832,5.398-8.753,8.75-16.293,11.095c-3.847,1.196-5.809,2.5-7.294,4.852c-3.609,5.714-7.644,0.249-6.152-8.333
	c2.139-12.304,22.737-25.516,36.368-23.327c0.943,0.151,1.794-0.193,1.892-0.768c0.251-1.486-36.045-6.258-43.555-5.727
	c-8.035,0.569-10.93,2.073-14.886,7.736c-4.641,6.644-8.449,9.081-17.216,11.018c-5.608,1.239-7.979,2.308-9.478,4.28l-1.999,2.632
	l-1.449-2.571c-6.056-10.749,6.682-22.493,26.297-24.246c2.49-0.223,4.829-0.969,5.196-1.658c0.751-1.41-15.495-3.471-21.13-2.681
	c-26.551,3.721-43.259,1.402-65.233-9.056c-11.638-5.538-11.868-5.575-16.174-2.616c-6.887,4.734-14.545-0.152-13.152-8.389
	c1.251-7.397,9.157-9.082,14.188-3.023c3.26,3.926,4.069,3.974,32.776,1.94c8.806-0.624,17.611,0.511,24.811,3.195
	c2.498,0.931,7.312,2.717,10.697,3.969c3.385,1.252,9.278,3.644,13.095,5.315c11.494,5.03,23.956,6.062,13.463,1.115
	c-10.681-5.036-16.504-21.644-9.599-27.377c2.985-2.478,4.583-1.88,5.353,2.003c0.26,1.312,2.588,4.121,5.171,6.242
	c5.38,4.418,8.13,8.27,10.609,14.87c3.591,9.562,5.557,10.574,28.781,14.8c18.685,3.4,27.517,3.613,17.634,0.424
	c-15.9-5.129-27.198-26.012-19.111-35.324c3.148-3.625,5.655-3.192,6.853,1.182c0.698,2.548,2.483,4.528,7.086,7.862
	c5.669,4.105,6.455,5.16,9.987,13.391c6.016,14.018,11.917,17.597,35.544,21.563c14.03,2.355,16.664,1.849,9.48-1.821
	c-8.621-4.404-19.683-16.52-20.973-22.973c-1.987-9.936,0.828-20.317,5.624-20.742c2.492-0.22,2.923,0.501,2.341,3.94
	c-0.729,4.308,0.397,6.426,5.752,10.82c4.927,4.044,6.904,7.238,12.471,20.151c4.317,10.011,7.77,12.427,20.951,14.657l10.068,1.703
	l0.237-4.773C1233.934,1443.156,1233.977,1442.621,1234.036,1442.125z M788.171,1586.995c0.339,0.367,0.689,0.775,1.05,1.223
	l2.997,3.722l7.144-7.296c9.354-9.552,10.728-13.536,8.335-24.172c-3.086-13.719-3.364-17.466-1.755-23.633
	c1.749-6.703,1.415-9.077-1.707-12.134c-2.492-2.44-2.568-3.277-0.422-4.564c4.13-2.476,12.509,4.268,16.742,13.474
	c2.749,5.979,0.921,22.283-3.465,30.913c-3.655,7.192-1.226,6.053,8.74-4.099c16.784-17.096,19.454-23.46,16.081-38.337
	c-1.98-8.735-1.964-10.051,0.209-16.704c1.765-5.403,2.045-8.054,1.112-10.526c-1.601-4.243,0.173-6.067,4.85-4.984
	c12.016,2.781,15.15,26.315,5.301,39.811c-6.122,8.389,0.899,3.025,14.017-10.708c16.305-17.07,17.3-19.044,14.585-28.891
	c-1.874-6.797-1.914-11.529-0.158-18.266c0.843-3.235,1.075-6.876,0.514-8.09c-1.659-3.594-0.719-5.017,3.153-4.767
	c8.956,0.579,14.008,17.438,8.326,27.791c-5.581,10.169,3.894,2.009,10.236-8.816c2.106-3.595,5.468-8.995,7.47-11.997
	c2.003-3.002,4.848-7.276,6.321-9.498c4.247-6.404,10.703-12.497,18.194-17.168c24.42-15.228,25.047-15.743,25.376-20.835
	c0.509-7.858,7.895-11.143,13.255-5.893c5.969,5.845,2.645,14.3-5.709,14.518c-5.222,0.136-5.387,0.302-11.547,11.623
	c-11.631,21.376-23.784,33.073-47.452,45.669c-5.023,2.673-16.955,13.89-15.519,14.589c0.703,0.342,3.033-0.429,5.179-1.713
	c16.899-10.111,34.108-8.097,35.526,4.159l0.339,2.931l-3.164-0.954c-2.372-0.714-4.918-0.186-10.184,2.109
	c-8.231,3.587-12.744,3.853-20.404,1.206c-6.529-2.256-9.755-1.771-16.59,2.491c-6.388,3.984-32.947,29.179-31.87,30.234
	c0.416,0.407,1.308,0.186,1.982-0.491c9.741-9.783,34.171-11.202,43.134-2.505c6.251,6.066,6.199,12.859-0.079,10.358
	c-2.584-1.029-4.937-0.931-8.753,0.362c-7.478,2.535-13.429,2.716-19.702,0.601c-9.296-3.135-17.824-2.205-26.575,2.896
	c-9.33,5.439-29.92,26.426-21.617,22.035c0.886-0.469,2.515-1.216,3.62-1.661c1.105-0.445,4.488-1.827,7.518-3.07
	c10.23-4.196,26.754-1.568,33.804,5.376c5.89,5.801,6.952,12.557,1.39,8.836c-3.3-2.207-4.786-2.175-14.489,0.302
	c-7.11,1.816-14.071,1.39-21.56-1.318c-10.476-3.788-18.916-1.745-29.163,7.057c-7.916,6.8-9.023,8.841-4.883,9.004
	c1.362,0.054,3.417,1.018,4.566,2.144c4.284,4.195,3.068,10.812-1.73,9.413c-2.93-0.854-3.952,0.458-5.43,6.964
	c-1.289,5.675-3.484,9.781-7.143,12.728c-3.659-2.947-5.854-7.053-7.143-12.728c-1.478-6.506-2.5-7.818-5.43-6.964
	c-4.798,1.398-6.015-5.218-1.73-9.413c1.149-1.126,3.205-2.09,4.566-2.144c4.14-0.163,3.033-2.205-4.883-9.004
	c-10.247-8.802-18.687-10.844-29.163-7.057c-7.488,2.708-14.45,3.134-21.56,1.318c-9.702-2.478-11.188-2.51-14.489-0.302
	c-5.562,3.72-4.5-3.035,1.39-8.836c7.05-6.944,23.574-9.572,33.804-5.376c3.03,1.243,6.414,2.625,7.518,3.07
	c1.105,0.445,2.734,1.193,3.62,1.661c8.303,4.392-12.286-16.596-21.617-22.035c-8.751-5.101-17.279-6.031-26.575-2.896
	c-6.273,2.115-12.224,1.934-19.702-0.601c-3.816-1.294-6.169-1.392-8.753-0.362c-6.278,2.501-6.33-4.292-0.079-10.358
	c8.963-8.697,33.393-7.279,43.134,2.505c0.674,0.677,1.565,0.898,1.982,0.491c1.077-1.054-25.483-26.25-31.87-30.234
	c-6.835-4.263-10.061-4.747-16.59-2.491c-7.66,2.647-12.173,2.381-20.404-1.206c-5.265-2.294-7.811-2.823-10.184-2.109l-3.164,0.954
	l0.339-2.931c1.418-12.256,18.627-14.27,35.526-4.159c2.146,1.284,4.476,2.055,5.179,1.713c1.436-0.699-10.496-11.916-15.519-14.589
	c-23.667-12.596-35.821-24.293-47.452-45.669c-6.16-11.321-6.325-11.487-11.547-11.623c-8.354-0.218-11.678-8.672-5.709-14.518
	c5.36-5.249,12.747-1.965,13.255,5.893c0.33,5.092,0.956,5.607,25.376,20.835c7.491,4.671,13.948,10.765,18.194,17.168
	c1.473,2.222,4.319,6.496,6.321,9.498c2.003,3.002,5.364,8.402,7.47,11.997c6.342,10.825,15.817,18.985,10.236,8.816
	c-5.681-10.352-0.63-27.212,8.326-27.791c3.872-0.25,4.813,1.173,3.153,4.767c-0.561,1.214-0.329,4.855,0.514,8.09
	c1.756,6.737,1.716,11.469-0.158,18.266c-2.715,9.847-1.72,11.821,14.585,28.891c13.118,13.733,20.138,19.097,14.017,10.708
	c-9.849-13.495-6.714-37.03,5.301-39.811c4.677-1.082,6.451,0.742,4.85,4.984c-0.933,2.471-0.653,5.123,1.112,10.526
	c2.173,6.653,2.189,7.969,0.209,16.704c-3.373,14.876-0.702,21.241,16.081,38.337c9.966,10.152,12.395,11.29,8.74,4.099
	c-4.386-8.63-6.214-24.934-3.465-30.913c4.232-9.206,12.612-15.951,16.742-13.474c2.146,1.286,2.07,2.124-0.422,4.564
	c-3.122,3.057-3.456,5.432-1.707,12.134c1.609,6.168,1.331,9.914-1.755,23.633c-2.392,10.637-1.019,14.621,8.335,24.172l7.144,7.296
	l2.997-3.722C787.482,1587.77,787.832,1587.362,788.171,1586.995z M342.306,1442.125c0.058,0.496,0.102,1.032,0.131,1.606
	l0.237,4.773l10.068-1.703c13.182-2.23,16.635-4.645,20.951-14.657c5.568-12.913,7.544-16.107,12.471-20.151
	c5.355-4.395,6.48-6.512,5.752-10.82c-0.582-3.439-0.151-4.161,2.341-3.94c4.797,0.424,7.612,10.806,5.624,20.742
	c-1.291,6.453-12.352,18.569-20.973,22.973c-7.184,3.67-4.55,4.176,9.48,1.821c23.627-3.965,29.528-7.545,35.544-21.563
	c3.532-8.23,4.319-9.286,9.987-13.391c4.603-3.333,6.388-5.314,7.086-7.862c1.198-4.374,3.706-4.807,6.853-1.182
	c8.087,9.312-3.211,30.195-19.111,35.324c-9.883,3.188-1.051,2.976,17.634-0.424c23.224-4.226,25.19-5.238,28.781-14.8
	c2.479-6.6,5.228-10.452,10.609-14.87c2.583-2.121,4.911-4.931,5.171-6.242c0.77-3.883,2.368-4.481,5.353-2.003
	c6.905,5.733,1.082,22.342-9.599,27.377c-10.493,4.947,1.969,3.914,13.463-1.115c3.818-1.671,9.71-4.063,13.095-5.315
	c3.385-1.252,8.199-3.037,10.697-3.969c7.2-2.684,16.005-3.819,24.811-3.195c28.707,2.034,29.517,1.986,32.776-1.94
	c5.031-6.058,12.937-4.374,14.188,3.023c1.393,8.237-6.266,13.123-13.152,8.389c-4.305-2.959-4.536-2.922-16.174,2.616
	c-21.974,10.457-38.682,12.776-65.233,9.056c-5.635-0.79-21.881,1.272-21.13,2.681c0.367,0.69,2.706,1.436,5.196,1.658
	c19.615,1.753,32.353,13.498,26.297,24.246l-1.449,2.571l-1.999-2.632c-1.5-1.972-3.87-3.041-9.478-4.28
	c-8.767-1.936-12.574-4.374-17.216-11.018c-3.956-5.663-6.851-7.167-14.886-7.736c-7.509-0.532-43.806,4.241-43.555,5.727
	c0.097,0.574,0.949,0.919,1.892,0.768c13.631-2.189,34.229,11.023,36.368,23.327c1.492,8.582-2.543,14.047-6.152,8.333
	c-1.485-2.352-3.447-3.655-7.294-4.852c-7.54-2.345-12.461-5.697-16.293-11.095c-5.678-8-13.124-12.26-23.202-13.277
	c-10.745-1.084-39.738,3.793-30.44,5.12c0.992,0.142,2.749,0.494,3.905,0.783c1.155,0.289,4.705,1.16,7.887,1.935
	c10.743,2.618,22.566,14.457,24.188,24.219c1.355,8.155-1.756,14.245-4.07,7.966c-1.373-3.725-2.594-4.573-11.899-8.271
	c-6.819-2.71-12.201-7.147-16.667-13.739c-6.249-9.222-14.277-12.53-27.741-11.432c-10.401,0.848-12.497,1.849-9.243,4.414
	c1.07,0.844,2.166,2.832,2.434,4.418c1,5.912-3.873,10.55-6.933,6.599c-1.869-2.413-3.467-1.953-8.487,2.443
	c-4.379,3.834-8.568,5.865-13.261,6.099c-1.228-4.535-0.591-9.147,1.703-14.496c2.629-6.132,2.573-7.795-0.299-8.826
	c-4.704-1.689-1.799-7.757,4.133-8.633c1.591-0.235,3.821,0.193,4.954,0.95c3.445,2.302,3.749-0.001,1.342-10.155
	c-3.117-13.144-8.744-19.757-19.445-22.85c-7.65-2.211-13.532-5.958-18.217-11.606c-6.393-7.707-7.577-8.607-11.544-8.761
	c-6.687-0.26-1.857-5.101,6.318-6.332c9.785-1.474,24.698,6.112,30.508,15.52c1.721,2.787,3.646,5.893,4.278,6.903
	c0.632,1.01,1.51,2.572,1.952,3.472c4.136,8.433-0.185-20.648-4.537-30.532c-4.081-9.271-10.434-15.035-19.797-17.963
	c-6.318-1.976-11.027-5.62-15.587-12.067c-2.327-3.289-4.173-4.752-6.868-5.438c-6.55-1.667-2.598-7.193,6.024-8.426
	c12.363-1.768,31.293,13.739,33.424,27.38c0.147,0.943,0.738,1.647,1.314,1.562c1.491-0.22-5.186-36.215-8.013-43.193
	c-3.024-7.466-5.349-9.755-11.957-11.767c-7.753-2.361-11.248-5.229-15.798-12.968c-2.911-4.951-4.66-6.875-6.999-7.692l-3.12-1.088
	l1.997-2.172c8.351-9.082,23.457-0.596,31.186,17.517c0.981,2.3,2.413,4.293,3.183,4.43c1.573,0.278-1.487-15.809-3.979-20.925
	c-11.744-24.102-14.701-40.709-11.546-64.839c1.671-12.78,1.635-13.01-2.51-16.19c-6.63-5.087-4.35-13.88,3.914-15.101
	c7.422-1.096,11.467,5.902,7.26,12.559c-2.726,4.313-2.522,5.098,8.284,31.772c3.315,8.182,4.956,16.907,4.628,24.584
	c-0.114,2.663-0.324,7.794-0.469,11.4s-0.599,9.95-1.008,14.097c-1.232,12.485,1.637,24.657,3.099,13.149
	c1.488-11.714,15.485-22.385,23.071-17.589c3.28,2.073,3.204,3.778-0.251,5.71c-1.167,0.653-3.12,3.734-4.339,6.847
	c-2.539,6.482-5.353,10.288-10.864,14.685c-7.984,6.37-8.34,8.552-5.182,31.946c2.54,18.821,5.068,27.287,5.045,16.902
	c-0.035-16.707,16.334-33.905,27.689-29.092c4.42,1.874,4.783,4.392,0.994,6.883c-2.207,1.451-3.539,3.761-5.287,9.169
	c-2.152,6.66-2.913,7.734-9.649,13.636c-11.473,10.053-13.053,16.771-9.524,40.467c2.096,14.071,3.391,16.419,4.661,8.453
	c1.524-9.56,9.629-23.824,15.367-27.046c8.836-4.96,19.579-5.491,21.464-1.061c0.98,2.302,0.426,2.935-3.024,3.444
	c-4.323,0.638-5.988,2.363-8.513,8.814c-2.323,5.936-4.751,8.803-15.311,18.088c-8.187,7.199-9.418,11.229-7.465,24.455
	l1.491,10.102l4.612-1.249C341.293,1442.346,341.816,1442.222,342.306,1442.125z M66.747,1062.849
	c-0.244,0.436-0.524,0.895-0.838,1.376l-2.614,4l9.147,4.54c11.975,5.944,16.188,6.02,25.565,0.458
	c12.094-7.174,15.571-8.597,21.934-8.972c6.915-0.408,9.07-1.459,11.013-5.373c1.551-3.124,2.323-3.455,4.21-1.812
	c3.631,3.163-0.193,13.216-7.641,20.086c-4.837,4.462-20.908,7.762-30.471,6.258c-7.969-1.254-6.135,0.704,6.599,7.045
	c21.445,10.679,28.323,11.252,41.43,3.448c7.695-4.583,8.952-4.974,15.951-4.963c5.683,0.009,8.292-0.544,10.354-2.195
	c3.54-2.834,5.823-1.711,6.239,3.072c1.069,12.287-20.346,22.541-36.224,17.344c-9.87-3.23-2.599,1.789,14.515,10.021
	c21.273,10.232,23.458,10.568,31.984,4.943c5.885-3.883,10.373-5.383,17.323-5.795c3.337-0.198,6.871-1.102,7.853-2.011
	c2.905-2.688,4.549-2.234,5.508,1.526c2.217,8.697-12.256,18.711-23.857,16.506c-11.396-2.165-0.708,4.324,11.548,7.011
	c4.07,0.892,10.244,2.42,13.718,3.397c3.474,0.977,8.418,2.362,10.987,3.077c7.403,2.06,15.193,6.317,21.951,11.998
	c22.029,18.519,22.712,18.956,27.657,17.696c7.631-1.944,13.037,4.066,9.701,10.785c-3.715,7.483-12.783,6.934-15.571-0.944
	c-1.743-4.925-1.952-5.03-14.622-7.39c-23.924-4.456-38.804-12.4-58.097-31.017c-4.095-3.951-18.45-11.832-18.671-10.251
	c-0.108,0.774,1.345,2.752,3.229,4.396c14.838,12.948,18.241,29.937,7.023,35.073l-2.683,1.228l-0.07-3.304
	c-0.054-2.477-1.343-4.735-5.152-9.034c-5.954-6.72-7.602-10.929-7.452-19.033c0.128-6.906-1.33-9.825-7.496-15.008
	c-5.763-4.844-37.932-22.318-38.602-20.968c-0.259,0.522,0.228,1.301,1.079,1.733c12.315,6.241,21.213,29.037,15.711,40.249
	c-3.837,7.819-10.314,9.87-9.875,3.126c0.181-2.776-0.64-4.984-3.05-8.213c-4.722-6.329-6.733-11.933-6.66-18.552
	c0.109-9.81-3.411-17.633-10.967-24.379c-8.056-7.193-34.379-20.289-27.636-13.75c0.72,0.698,1.934,2.016,2.699,2.929
	c0.765,0.913,3.125,3.704,5.243,6.202c7.152,8.433,9.759,24.96,5.333,33.81c-3.697,7.394-9.794,10.492-7.974,4.052
	c1.079-3.821,0.59-5.224-4.765-13.686c-3.924-6.201-5.67-12.953-5.409-20.912c0.365-11.134-4.185-18.529-15.723-25.555
	c-8.913-5.428-11.197-5.849-10.073-1.862c0.37,1.312,0.088,3.564-0.628,5.005c-2.666,5.371-9.334,6.259-9.487,1.263
	c-0.093-3.05-1.657-3.617-8.302-3.012c-5.796,0.528-10.379-0.291-14.313-2.86c1.672-4.391,4.899-7.747,9.898-10.727
	c5.731-3.416,6.663-4.794,4.946-7.316c-2.812-4.131,3.104-7.333,8.418-4.554c1.426,0.745,2.978,2.402,3.45,3.681
	c1.434,3.887,3.034,2.203,7.054-7.427c5.204-12.465,4.539-21.123-2.301-29.916c-4.889-6.285-7.446-12.775-7.916-20.097
	c-0.642-9.993-1.071-11.416-4.19-13.873c-5.257-4.141,1.496-5.218,8.833-1.409c8.783,4.559,16.388,19.462,15.559,30.488
	c-0.246,3.266-0.514,6.911-0.597,8.099c-0.082,1.188-0.29,2.968-0.462,3.956c-1.611,9.254,11.987-16.813,14.276-27.368
	c2.147-9.899,0.396-18.297-5.458-26.169c-3.95-5.312-5.617-11.028-5.517-18.924c0.051-4.029-0.583-6.297-2.36-8.437
	c-4.319-5.198,2.126-7.346,9.826-3.276c11.041,5.836,17.241,29.509,10.947,41.797c-0.435,0.85-0.371,1.766,0.145,2.036
	c1.335,0.698,17.091-32.347,18.906-39.653c1.942-7.818,1.406-11.036-2.757-16.548c-4.885-6.467-6.026-10.841-5.159-19.778
	c0.555-5.717,0.271-8.301-1.141-10.337l-1.885-2.714l2.893-0.583c12.094-2.438,19.328,13.306,14.934,32.503
	c-0.558,2.437-0.571,4.892-0.028,5.455c1.109,1.149,8.089-13.664,9.08-19.268c4.666-26.402,12.035-41.575,28.771-59.242
	c8.864-9.357,8.97-9.565,7.486-14.574c-2.374-8.012,4.639-13.787,12.043-9.916c6.649,3.475,5.808,11.515-1.509,14.428
	c-4.741,1.887-5.037,2.642-11.973,30.573c-2.128,8.568-5.928,16.591-10.706,22.609c-1.658,2.088-4.843,6.115-7.08,8.947
	c-2.237,2.832-6.333,7.697-9.102,10.812c-8.335,9.377-13.168,20.91-5.221,12.459c8.09-8.602,25.685-9.008,29.003-0.669
	c1.435,3.605,0.372,4.94-3.559,4.472c-1.328-0.158-4.719,1.188-7.535,2.989c-5.864,3.752-10.377,5.177-17.421,5.494
	c-10.204,0.46-11.774,2.017-22.97,22.799c-9.008,16.72-11.939,25.054-5.853,16.64c9.792-13.537,33.143-17.829,39.501-7.26
	c2.475,4.114,1.288,6.365-3.242,6.153c-2.639-0.123-5.074,0.962-9.667,4.31c-5.656,4.123-6.903,4.545-15.822,5.36
	c-15.19,1.39-20.418,5.896-31.491,27.141c-6.575,12.615-6.908,15.277-1.198,9.579c6.853-6.838,21.793-13.614,28.33-12.848
	c10.064,1.18,19.067,7.066,17.988,11.759c-0.56,2.438-1.38,2.625-4.471,1.009c-3.872-2.024-6.234-1.608-12.068,2.126
	c-5.368,3.436-9.018,4.329-23.019,5.634c-10.855,1.012-14.22,3.549-20.414,15.397l-4.731,9.049l4.466,1.7
	C65.797,1062.433,66.293,1062.641,66.747,1062.849z M66.747,594.039c-0.454,0.209-0.95,0.416-1.487,0.621l-4.466,1.7l4.731,9.049
	c6.194,11.848,9.558,14.385,20.414,15.397c14.001,1.305,17.65,2.198,23.019,5.634c5.834,3.735,8.196,4.151,12.068,2.127
	c3.091-1.616,3.91-1.43,4.471,1.009c1.079,4.693-7.925,10.578-17.988,11.759c-6.536,0.767-21.477-6.01-28.33-12.848
	c-5.71-5.698-5.377-3.037,1.198,9.579c11.073,21.245,16.3,25.751,31.491,27.141c8.919,0.816,10.166,1.238,15.822,5.361
	c4.593,3.348,7.028,4.434,9.667,4.31c4.53-0.212,5.717,2.039,3.242,6.153c-6.357,10.568-29.709,6.277-39.501-7.26
	c-6.086-8.414-3.155-0.08,5.853,16.64c11.196,20.782,12.766,22.339,22.97,22.799c7.043,0.318,11.556,1.742,17.421,5.494
	c2.816,1.802,6.207,3.147,7.535,2.989c3.93-0.468,4.994,0.867,3.559,4.472c-3.318,8.339-20.914,7.933-29.003-0.669
	c-7.947-8.451-3.114,3.083,5.221,12.459c2.769,3.114,6.865,7.979,9.102,10.812s5.422,6.859,7.08,8.947
	c4.778,6.018,8.578,14.041,10.706,22.609c6.936,27.931,7.233,28.686,11.973,30.573c7.317,2.912,8.157,10.952,1.509,14.428
	c-7.404,3.871-14.417-1.904-12.043-9.916c1.484-5.009,1.378-5.217-7.486-14.574c-16.736-17.667-24.105-32.841-28.771-59.242
	c-0.99-5.603-7.971-20.417-9.08-19.268c-0.543,0.563-0.529,3.017,0.028,5.454c4.394,19.197-2.839,34.941-14.934,32.503l-2.893-0.583
	l1.885-2.714c1.412-2.036,1.696-4.62,1.141-10.337c-0.868-8.936,0.274-13.31,5.159-19.778c4.163-5.512,4.699-8.73,2.757-16.548
	c-1.815-7.306-17.57-40.351-18.906-39.653c-0.516,0.27-0.581,1.186-0.145,2.036c6.294,12.288,0.094,35.96-10.947,41.797
	c-7.701,4.071-14.145,1.922-9.826-3.276c1.778-2.139,2.411-4.408,2.36-8.437c-0.1-7.895,1.567-13.611,5.517-18.924
	c5.854-7.872,7.605-16.27,5.458-26.169c-2.29-10.554-15.887-36.621-14.276-27.368c0.172,0.987,0.379,2.768,0.462,3.956
	c0.082,1.188,0.351,4.833,0.597,8.099c0.83,11.026-6.776,25.929-15.559,30.488c-7.337,3.809-14.09,2.732-8.833-1.409
	c3.119-2.457,3.548-3.88,4.19-13.873c0.47-7.323,3.027-13.812,7.916-20.097c6.84-8.793,7.505-17.451,2.301-29.916
	c-4.021-9.63-5.62-11.314-7.054-7.427c-0.472,1.279-2.024,2.935-3.45,3.681c-5.314,2.778-11.231-0.423-8.418-4.554
	c1.717-2.523,0.786-3.901-4.946-7.316c-4.999-2.98-8.226-6.336-9.898-10.727c3.934-2.569,8.517-3.388,14.313-2.86
	c6.644,0.605,8.208,0.038,8.302-3.012c0.153-4.996,6.821-4.108,9.487,1.263c0.715,1.441,0.997,3.694,0.628,5.005
	c-1.124,3.988,1.16,3.566,10.073-1.862c11.537-7.026,16.088-14.421,15.723-25.555c-0.261-7.959,1.485-14.711,5.409-20.912
	c5.354-8.462,5.844-9.865,4.765-13.686c-1.819-6.44,4.277-3.342,7.974,4.052c4.426,8.851,1.819,25.378-5.333,33.81
	c-2.119,2.498-4.478,5.289-5.243,6.202c-0.765,0.913-1.979,2.231-2.699,2.929c-6.743,6.539,19.58-6.557,27.636-13.75
	c7.556-6.746,11.075-14.569,10.967-24.379c-0.073-6.62,1.938-12.224,6.66-18.552c2.409-3.229,3.23-5.437,3.05-8.213
	c-0.439-6.744,6.038-4.694,9.875,3.126c5.502,11.212-3.396,34.007-15.711,40.249c-0.852,0.432-1.338,1.211-1.079,1.733
	c0.67,1.35,32.84-16.124,38.602-20.968c6.166-5.183,7.624-8.102,7.496-15.008c-0.15-8.103,1.497-12.313,7.452-19.033
	c3.809-4.299,5.098-6.557,5.152-9.034l0.07-3.304l2.683,1.228c11.218,5.136,7.815,22.125-7.023,35.073
	c-1.884,1.644-3.337,3.622-3.229,4.396c0.221,1.582,14.576-6.3,18.671-10.251c19.293-18.617,34.174-26.561,58.097-31.017
	c12.67-2.36,12.879-2.465,14.622-7.39c2.789-7.878,11.857-8.427,15.571-0.944c3.336,6.72-2.07,12.73-9.701,10.785
	c-4.945-1.26-5.628-0.823-27.657,17.696c-6.758,5.681-14.548,9.938-21.951,11.998c-2.568,0.715-7.513,2.1-10.987,3.077
	c-3.474,0.977-9.648,2.505-13.718,3.397c-12.255,2.687-22.944,9.176-11.548,7.011c11.601-2.204,26.074,7.81,23.857,16.507
	c-0.958,3.76-2.603,4.215-5.508,1.526c-0.981-0.908-4.516-1.813-7.853-2.011c-6.95-0.411-11.438-1.912-17.323-5.795
	c-8.526-5.625-10.711-5.289-31.984,4.943c-17.115,8.232-24.385,13.252-14.515,10.021c15.878-5.196,37.293,5.057,36.224,17.344
	c-0.416,4.783-2.699,5.907-6.239,3.072c-2.062-1.651-4.671-2.204-10.354-2.195c-6.999,0.011-8.256-0.38-15.951-4.963
	c-13.106-7.805-19.984-7.232-41.43,3.448c-12.734,6.341-14.568,8.299-6.599,7.045c9.563-1.504,25.634,1.796,30.471,6.258
	c7.448,6.87,11.272,16.924,7.641,20.086c-1.887,1.643-2.659,1.312-4.21-1.812c-1.943-3.914-4.098-4.965-11.013-5.373
	c-6.363-0.375-9.84-1.798-21.934-8.972c-9.377-5.562-13.59-5.487-25.565,0.457l-9.147,4.54l2.614,4
	C66.223,593.145,66.502,593.604,66.747,594.039z M342.306,214.764c-0.49-0.098-1.013-0.222-1.568-0.372l-4.612-1.249l-1.491,10.102
	c-1.953,13.226-0.723,17.256,7.465,24.455c10.56,9.285,12.988,12.152,15.311,18.088c2.525,6.451,4.191,8.175,8.513,8.814
	c3.45,0.509,4.004,1.142,3.024,3.444c-1.886,4.431-12.629,3.9-21.464-1.06c-5.739-3.222-13.843-17.486-15.367-27.046
	c-1.27-7.966-2.566-5.618-4.661,8.453c-3.53,23.696-1.949,30.414,9.524,40.467c6.736,5.903,7.497,6.977,9.649,13.637
	c1.748,5.408,3.08,7.718,5.287,9.169c3.79,2.491,3.426,5.01-0.994,6.883c-11.355,4.813-27.725-12.385-27.689-29.092
	c0.022-10.385-2.505-1.919-5.045,16.902c-3.158,23.394-2.802,25.576,5.182,31.946c5.511,4.397,8.325,8.202,10.864,14.685
	c1.219,3.112,3.172,6.194,4.339,6.847c3.455,1.932,3.53,3.637,0.251,5.71c-7.586,4.796-21.583-5.875-23.071-17.589
	c-1.462-11.508-4.331,0.663-3.099,13.149c0.409,4.147,0.864,10.491,1.008,14.097c0.145,3.606,0.355,8.736,0.469,11.4
	c0.328,7.677-1.313,16.402-4.628,24.584c-10.805,26.673-11.01,27.458-8.284,31.772c4.207,6.657,0.162,13.655-7.26,12.559
	c-8.265-1.22-10.545-10.014-3.914-15.101c4.145-3.18,4.181-3.411,2.51-16.19c-3.155-24.13-0.198-40.737,11.546-64.839
	c2.492-5.115,5.552-21.203,3.979-20.925c-0.77,0.136-2.202,2.13-3.183,4.43c-7.729,18.113-22.835,26.599-31.186,17.517l-1.997-2.172
	l3.12-1.088c2.339-0.817,4.088-2.741,6.999-7.692c4.551-7.74,8.045-10.607,15.798-12.968c6.608-2.012,8.933-4.301,11.957-11.767
	c2.826-6.977,9.503-42.972,8.013-43.193c-0.576-0.085-1.167,0.618-1.314,1.562c-2.13,13.641-21.061,29.148-33.424,27.38
	c-8.623-1.233-12.574-6.759-6.024-8.426c2.695-0.686,4.542-2.149,6.868-5.438c4.56-6.446,9.268-10.091,15.587-12.067
	c9.363-2.928,15.716-8.693,19.797-17.963c4.351-9.884,8.672-38.966,4.537-30.532c-0.441,0.9-1.32,2.462-1.952,3.472
	c-0.632,1.01-2.557,4.116-4.278,6.903c-5.81,9.408-20.723,16.994-30.508,15.52c-8.175-1.231-13.005-6.072-6.318-6.332
	c3.967-0.154,5.151-1.054,11.544-8.761c4.685-5.648,10.567-9.395,18.217-11.606c10.702-3.093,16.329-9.706,19.445-22.85
	c2.408-10.154,2.103-12.456-1.342-10.155c-1.133,0.757-3.363,1.185-4.954,0.95c-5.932-0.876-8.837-6.943-4.133-8.633
	c2.872-1.031,2.928-2.694,0.299-8.826c-2.293-5.349-2.931-9.961-1.703-14.496c4.692,0.233,8.882,2.265,13.261,6.099
	c5.02,4.395,6.618,4.855,8.487,2.443c3.06-3.951,7.933,0.686,6.933,6.599c-0.268,1.586-1.364,3.574-2.434,4.418
	c-3.253,2.565-1.158,3.566,9.243,4.414c13.464,1.098,21.492-2.211,27.741-11.433c4.467-6.592,9.848-11.029,16.667-13.739
	c9.306-3.698,10.527-4.546,11.899-8.271c2.313-6.279,5.425-0.19,4.07,7.966c-1.622,9.762-13.445,21.6-24.188,24.219
	c-3.182,0.776-6.731,1.646-7.887,1.935c-1.156,0.289-2.913,0.642-3.905,0.783c-9.299,1.327,19.695,6.204,30.44,5.12
	c10.078-1.017,17.524-5.277,23.202-13.277c3.832-5.398,8.753-8.75,16.293-11.095c3.847-1.196,5.809-2.5,7.294-4.852
	c3.609-5.714,7.644-0.249,6.152,8.333c-2.139,12.304-22.737,25.516-36.368,23.327c-0.943-0.152-1.794,0.193-1.892,0.767
	c-0.251,1.486,36.045,6.258,43.555,5.727c8.035-0.569,10.93-2.073,14.886-7.736c4.641-6.644,8.449-9.081,17.216-11.018
	c5.608-1.239,7.979-2.308,9.478-4.28l1.999-2.632l1.449,2.571c6.056,10.749-6.682,22.493-26.297,24.246
	c-2.49,0.223-4.829,0.969-5.196,1.658c-0.751,1.41,15.495,3.471,21.13,2.681c26.551-3.721,43.259-1.402,65.233,9.056
	c11.638,5.538,11.868,5.575,16.174,2.616c6.887-4.734,14.545,0.152,13.152,8.389c-1.251,7.397-9.157,9.082-14.188,3.023
	c-3.26-3.926-4.069-3.974-32.776-1.94c-8.806,0.624-17.611-0.511-24.811-3.195c-2.498-0.931-7.312-2.717-10.697-3.969
	c-3.385-1.252-9.278-3.644-13.095-5.315c-11.494-5.03-23.956-6.062-13.463-1.115c10.681,5.036,16.504,21.644,9.599,27.377
	c-2.985,2.478-4.583,1.88-5.353-2.003c-0.26-1.312-2.588-4.121-5.171-6.242c-5.381-4.418-8.13-8.27-10.609-14.87
	c-3.591-9.562-5.557-10.574-28.781-14.8c-18.685-3.4-27.517-3.613-17.634-0.424c15.9,5.129,27.198,26.012,19.111,35.324
	c-3.148,3.625-5.655,3.192-6.853-1.182c-0.698-2.548-2.483-4.528-7.086-7.862c-5.669-4.105-6.455-5.16-9.987-13.391
	c-6.016-14.018-11.917-17.597-35.544-21.563c-14.03-2.355-16.664-1.849-9.48,1.821c8.621,4.404,19.683,16.52,20.973,22.973
	c1.987,9.936-0.828,20.317-5.624,20.742c-2.492,0.22-2.923-0.501-2.341-3.94c0.729-4.308-0.397-6.426-5.752-10.82
	c-4.927-4.044-6.904-7.238-12.471-20.151c-4.317-10.011-7.77-12.427-20.951-14.657l-10.068-1.703l-0.237,4.773
	C342.408,213.732,342.364,214.268,342.306,214.764z M788.171,69.894c-0.339-0.367-0.689-0.775-1.05-1.223l-2.997-3.722l-7.144,7.296
	c-9.354,9.552-10.728,13.536-8.335,24.172c3.086,13.719,3.364,17.466,1.755,23.633c-1.749,6.703-1.415,9.077,1.707,12.134
	c2.492,2.44,2.568,3.277,0.422,4.564c-4.13,2.476-12.509-4.268-16.742-13.474c-2.749-5.979-0.921-22.283,3.465-30.913
	c3.655-7.191,1.226-6.053-8.74,4.099c-16.784,17.096-19.454,23.46-16.081,38.337c1.98,8.735,1.964,10.051-0.209,16.704
	c-1.765,5.403-2.045,8.054-1.112,10.526c1.601,4.243-0.173,6.067-4.85,4.984c-12.016-2.78-15.15-26.315-5.301-39.811
	c6.122-8.389-0.899-3.025-14.017,10.708c-16.305,17.07-17.3,19.044-14.585,28.891c1.874,6.797,1.914,11.529,0.158,18.266
	c-0.843,3.235-1.075,6.876-0.514,8.09c1.659,3.594,0.719,5.017-3.153,4.767c-8.956-0.579-14.008-17.438-8.326-27.79
	c5.581-10.169-3.894-2.009-10.236,8.816c-2.106,3.595-5.468,8.995-7.47,11.997s-4.848,7.277-6.321,9.498
	c-4.247,6.404-10.703,12.497-18.194,17.169c-24.42,15.228-25.047,15.743-25.376,20.835c-0.509,7.858-7.895,11.143-13.255,5.893
	c-5.969-5.845-2.645-14.3,5.709-14.518c5.222-0.136,5.387-0.302,11.547-11.623c11.631-21.376,23.784-33.073,47.452-45.669
	c5.023-2.673,16.955-13.89,15.519-14.589c-0.703-0.342-3.033,0.429-5.179,1.713c-16.899,10.111-34.108,8.097-35.526-4.159
	l-0.339-2.931l3.164,0.954c2.372,0.714,4.918,0.186,10.184-2.109c8.231-3.587,12.744-3.853,20.404-1.206
	c6.529,2.256,9.755,1.771,16.59-2.491c6.388-3.984,32.947-29.179,31.87-30.234c-0.416-0.407-1.308-0.186-1.982,0.491
	c-9.741,9.783-34.171,11.202-43.134,2.505c-6.251-6.066-6.199-12.859,0.079-10.358c2.584,1.029,4.937,0.931,8.753-0.362
	c7.478-2.535,13.429-2.716,19.702-0.601c9.296,3.135,17.824,2.205,26.575-2.896c9.33-5.439,29.92-26.426,21.617-22.035
	c-0.886,0.469-2.515,1.216-3.62,1.661c-1.105,0.445-4.488,1.827-7.518,3.07c-10.23,4.196-26.754,1.568-33.804-5.376
	c-5.89-5.801-6.952-12.557-1.39-8.836c3.3,2.207,4.786,2.175,14.489-0.302c7.11-1.816,14.071-1.39,21.56,1.318
	c10.476,3.788,18.916,1.745,29.163-7.056c7.916-6.8,9.023-8.841,4.883-9.004c-1.362-0.054-3.417-1.018-4.566-2.144
	c-4.284-4.195-3.068-10.812,1.73-9.414c2.93,0.854,3.952-0.458,5.43-6.964c1.289-5.675,3.484-9.781,7.143-12.728
	c3.659,2.947,5.854,7.053,7.143,12.728c1.478,6.506,2.5,7.818,5.43,6.964c4.798-1.398,6.015,5.218,1.73,9.414
	c-1.149,1.126-3.205,2.09-4.566,2.144c-4.14,0.163-3.033,2.205,4.883,9.004c10.247,8.802,18.687,10.844,29.163,7.056
	c7.488-2.708,14.45-3.134,21.56-1.318c9.702,2.478,11.188,2.51,14.489,0.302c5.562-3.72,4.5,3.035-1.39,8.836
	c-7.05,6.944-23.574,9.572-33.804,5.376c-3.03-1.243-6.414-2.625-7.518-3.07c-1.105-0.445-2.734-1.193-3.62-1.661
	c-8.303-4.392,12.286,16.596,21.617,22.035c8.751,5.101,17.279,6.031,26.575,2.896c6.273-2.115,12.224-1.935,19.702,0.601
	c3.816,1.294,6.169,1.392,8.753,0.362c6.278-2.501,6.33,4.292,0.079,10.358c-8.963,8.697-33.393,7.279-43.134-2.505
	c-0.674-0.677-1.565-0.898-1.982-0.491c-1.077,1.054,25.483,26.25,31.87,30.234c6.835,4.263,10.061,4.748,16.59,2.491
	c7.66-2.647,12.173-2.381,20.404,1.206c5.265,2.294,7.811,2.823,10.184,2.109l3.164-0.954l-0.339,2.931
	c-1.418,12.256-18.627,14.27-35.526,4.159c-2.146-1.284-4.476-2.055-5.179-1.713c-1.436,0.699,10.496,11.916,15.519,14.589
	c23.667,12.596,35.821,24.293,47.452,45.669c6.16,11.321,6.325,11.487,11.547,11.623c8.354,0.218,11.678,8.672,5.709,14.518
	c-5.36,5.249-12.747,1.965-13.255-5.893c-0.33-5.092-0.956-5.607-25.376-20.835c-7.491-4.671-13.948-10.765-18.194-17.169
	c-1.473-2.222-4.319-6.496-6.321-9.498s-5.364-8.402-7.47-11.997c-6.342-10.825-15.817-18.985-10.236-8.816
	c5.681,10.352,0.63,27.211-8.326,27.79c-3.872,0.25-4.813-1.173-3.153-4.767c0.561-1.214,0.329-4.855-0.514-8.09
	c-1.756-6.737-1.716-11.469,0.158-18.266c2.715-9.847,1.72-11.821-14.585-28.891c-13.118-13.733-20.138-19.097-14.017-10.708
	c9.849,13.495,6.714,37.031-5.301,39.811c-4.677,1.082-6.451-0.742-4.85-4.984c0.933-2.471,0.653-5.123-1.112-10.526
	c-2.173-6.653-2.189-7.969-0.209-16.704c3.373-14.876,0.702-21.241-16.081-38.337c-9.966-10.152-12.395-11.29-8.74-4.099
	c4.386,8.63,6.214,24.934,3.465,30.913c-4.232,9.206-12.612,15.95-16.742,13.474c-2.146-1.286-2.07-2.124,0.422-4.564
	c3.122-3.057,3.456-5.432,1.707-12.134c-1.609-6.168-1.331-9.914,1.755-23.633c2.392-10.637,1.019-14.621-8.335-24.172l-7.144-7.296
	l-2.997,3.722C788.86,69.119,788.51,69.527,788.171,69.894z M1234.036,214.764c-0.058-0.496-0.102-1.032-0.131-1.606l-0.237-4.773
	l-10.068,1.703c-13.182,2.23-16.635,4.645-20.951,14.657c-5.568,12.913-7.544,16.107-12.471,20.151
	c-5.355,4.395-6.48,6.512-5.752,10.82c0.582,3.439,0.151,4.161-2.341,3.94c-4.797-0.424-7.612-10.806-5.624-20.742
	c1.291-6.453,12.352-18.569,20.973-22.973c7.184-3.67,4.55-4.176-9.48-1.821c-23.627,3.966-29.528,7.545-35.544,21.563
	c-3.532,8.231-4.319,9.286-9.987,13.391c-4.603,3.334-6.388,5.314-7.086,7.862c-1.198,4.374-3.705,4.807-6.853,1.182
	c-8.087-9.312,3.211-30.195,19.111-35.324c9.883-3.188,1.051-2.976-17.634,0.424c-23.224,4.226-25.19,5.238-28.781,14.8
	c-2.479,6.6-5.228,10.452-10.609,14.87c-2.583,2.121-4.911,4.931-5.171,6.242c-0.77,3.883-2.368,4.481-5.353,2.003
	c-6.905-5.733-1.082-22.342,9.599-27.377c10.493-4.947-1.969-3.914-13.463,1.115c-3.817,1.671-9.71,4.063-13.095,5.315
	c-3.385,1.252-8.199,3.037-10.697,3.969c-7.2,2.684-16.005,3.819-24.811,3.195c-28.707-2.034-29.517-1.986-32.776,1.94
	c-5.031,6.059-12.937,4.374-14.188-3.023c-1.393-8.238,6.266-13.123,13.152-8.389c4.305,2.959,4.536,2.922,16.174-2.616
	c21.974-10.457,38.682-12.777,65.233-9.056c5.635,0.79,21.881-1.272,21.13-2.681c-0.367-0.69-2.706-1.436-5.196-1.658
	c-19.615-1.753-32.353-13.498-26.297-24.246l1.449-2.571l1.999,2.632c1.5,1.972,3.87,3.041,9.478,4.28
	c8.767,1.936,12.574,4.374,17.216,11.018c3.956,5.663,6.851,7.167,14.886,7.736c7.509,0.532,43.806-4.241,43.555-5.727
	c-0.097-0.574-0.949-0.919-1.892-0.767c-13.631,2.189-34.229-11.023-36.368-23.327c-1.492-8.582,2.543-14.047,6.152-8.333
	c1.485,2.352,3.447,3.655,7.294,4.852c7.54,2.345,12.461,5.696,16.293,11.095c5.678,8,13.124,12.26,23.202,13.277
	c10.745,1.084,39.738-3.793,30.44-5.12c-0.992-0.142-2.749-0.494-3.905-0.783c-1.156-0.289-4.705-1.16-7.887-1.935
	c-10.743-2.618-22.566-14.457-24.188-24.219c-1.355-8.155,1.756-14.245,4.07-7.966c1.373,3.725,2.594,4.573,11.899,8.271
	c6.819,2.71,12.201,7.147,16.667,13.739c6.249,9.222,14.277,12.53,27.741,11.433c10.401-0.848,12.497-1.849,9.243-4.414
	c-1.07-0.844-2.166-2.832-2.434-4.418c-1-5.913,3.873-10.55,6.933-6.599c1.869,2.413,3.467,1.952,8.487-2.443
	c4.379-3.834,8.568-5.865,13.261-6.099c1.228,4.535,0.59,9.147-1.703,14.496c-2.629,6.132-2.573,7.795,0.299,8.826
	c4.704,1.689,1.799,7.757-4.133,8.633c-1.592,0.235-3.821-0.193-4.954-0.95c-3.445-2.301-3.75,0.001-1.342,10.155
	c3.117,13.144,8.744,19.757,19.445,22.85c7.65,2.211,13.532,5.958,18.217,11.606c6.393,7.707,7.576,8.607,11.544,8.761
	c6.687,0.26,1.857,5.101-6.318,6.332c-9.785,1.474-24.698-6.112-30.508-15.52c-1.721-2.787-3.646-5.893-4.278-6.903
	c-0.632-1.01-1.51-2.572-1.952-3.472c-4.136-8.433,0.185,20.648,4.537,30.532c4.081,9.271,10.434,15.035,19.797,17.963
	c6.318,1.976,11.027,5.62,15.587,12.067c2.327,3.289,4.173,4.752,6.868,5.438c6.55,1.667,2.598,7.193-6.024,8.426
	c-12.363,1.768-31.293-13.739-33.424-27.38c-0.147-0.943-0.738-1.647-1.314-1.562c-1.491,0.22,5.187,36.215,8.013,43.193
	c3.024,7.466,5.349,9.755,11.957,11.767c7.753,2.361,11.248,5.229,15.798,12.968c2.911,4.951,4.661,6.875,6.999,7.692l3.12,1.088
	l-1.997,2.172c-8.351,9.081-23.457,0.596-31.186-17.517c-0.981-2.3-2.413-4.293-3.183-4.43c-1.573-0.278,1.487,15.809,3.979,20.925
	c11.744,24.102,14.701,40.709,11.546,64.839c-1.671,12.78-1.635,13.01,2.51,16.19c6.63,5.087,4.35,13.88-3.915,15.101
	c-7.422,1.096-11.467-5.902-7.26-12.559c2.726-4.313,2.522-5.098-8.284-31.772c-3.315-8.182-4.956-16.907-4.628-24.584
	c0.114-2.664,0.324-7.794,0.469-11.4c0.145-3.606,0.599-9.95,1.008-14.097c1.232-12.485-1.637-24.657-3.099-13.149
	c-1.489,11.714-15.485,22.385-23.071,17.589c-3.28-2.073-3.204-3.778,0.251-5.71c1.167-0.653,3.12-3.735,4.339-6.847
	c2.539-6.482,5.353-10.288,10.864-14.685c7.984-6.37,8.34-8.552,5.182-31.946c-2.54-18.821-5.068-27.287-5.045-16.902
	c0.035,16.707-16.334,33.905-27.689,29.092c-4.42-1.874-4.783-4.392-0.994-6.883c2.207-1.451,3.539-3.761,5.287-9.169
	c2.152-6.66,2.913-7.734,9.649-13.637c11.473-10.053,13.053-16.771,9.524-40.467c-2.096-14.071-3.391-16.419-4.661-8.453
	c-1.524,9.56-9.629,23.824-15.367,27.046c-8.836,4.96-19.579,5.491-21.464,1.06c-0.98-2.302-0.426-2.935,3.024-3.444
	c4.323-0.638,5.988-2.363,8.513-8.814c2.323-5.936,4.751-8.803,15.311-18.088c8.188-7.199,9.418-11.23,7.465-24.455l-1.491-10.102
	l-4.612,1.249C1235.048,214.542,1234.526,214.666,1234.036,214.764z"/>
</svg>
