<?xml version="1.0"?>
<svg xmlns:rdf="http://www.w3.org/1999/02/22-rdf-syntax-ns#" xmlns="http://www.w3.org/2000/svg" xmlns:cc="http://creativecommons.org/ns#" xmlns:xlink="http://www.w3.org/1999/xlink" xmlns:dc="http://purl.org/dc/elements/1.1/" version="1.1" viewBox="0 0 542.46 451.09">
 <defs>
  <filter id="filter5921-5" width="1.214" y="-.10593" x="-.10698" height="1.2119" color-interpolation-filters="sRGB">
   <feGaussianBlur stdDeviation="8.473358"/>
  </filter>
  <linearGradient id="linearGradient11437" x1="-368.12" gradientUnits="userSpaceOnUse" x2="-364.66" gradientTransform="translate(267.5 -218.96)" y1="677.43" y2="535.84">
   <stop stop-color="#2b0000" offset="0"/>
   <stop stop-color="#F00" stop-opacity="0" offset="1"/>
  </linearGradient>
  <linearGradient id="linearGradient11472" x1="-610.89" gradientUnits="userSpaceOnUse" x2="-375.76" gradientTransform="translate(265 -221.46)" y1="455.76" y2="495.53">
   <stop stop-color="#2b0000" offset="0"/>
   <stop stop-color="#F00" stop-opacity="0" offset="1"/>
  </linearGradient>
  <linearGradient id="linearGradient11507" x1="-114.69" gradientUnits="userSpaceOnUse" x2="-465.66" gradientTransform="translate(270 -222.71)" y1="403.9" y2="467.87">
   <stop stop-color="#2b0000" offset="0"/>
   <stop stop-color="#F00" stop-opacity="0" offset="1"/>
  </linearGradient>
  <filter id="filter5921" width="1.214" y="-.10593" x="-.10698" height="1.2119" color-interpolation-filters="sRGB">
   <feGaussianBlur stdDeviation="8.473358"/>
  </filter>
  <filter id="filter5111" color-interpolation-filters="sRGB">
   <feGaussianBlur stdDeviation="8.624555"/>
  </filter>
 </defs>
 <g transform="translate(357.79 -48.994)">
  <path opacity=".83077" filter="url(#filter5111)" d="m-89.964 479.39c-413.55-121.24-233.37-604.64 0-322.78 233.37-281.86 429.81 201.54 0 322.78z"/>
 </g>
 <g transform="translate(357.79 -48.994)">
  <path d="m-102.26 460.67c-413.55-121.24-233.37-604.64 0-322.78 233.37-281.86 429.81 201.54 0 322.78z" fill="#F00"/>
  <path opacity=".64754" filter="url(#filter5921-5)" fill-opacity=".16364" d="m-58.713 115.19c154.57-109.08 244.52 27.29 153.88 152.15 7.653-65.92-61.564-167.65-153.88-152.15z" fill="#FFF"/>
 </g>
 <g transform="translate(357.79 -48.994)">
  <path d="m-102.26 463.17c-413.55-121.24-233.37-604.64 0-322.78 233.37-281.86 429.81 201.54 0 322.78z" fill="url(#linearGradient11437)"/>
 </g>
 <g transform="translate(357.79 -48.994)">
  <path d="m-99.758 459.42c-413.55-121.24-233.37-604.64 0-322.78 233.37-281.86 429.81 201.54 0 322.78z" fill="url(#linearGradient11507)"/>
 </g>
 <g transform="translate(357.79 -48.994)">
  <path d="m-104.76 460.67c-413.55-121.24-233.37-604.64 0-322.78 233.37-281.86 429.81 201.54 0 322.78z" fill="url(#linearGradient11472)"/>
 </g>
 <g transform="translate(357.79 -48.994)">
  <path opacity=".60769" filter="url(#filter5921)" fill-opacity=".16364" d="m-58.713 115.19c154.57-109.08 244.52 27.29 153.88 152.15 7.653-65.92-61.564-167.65-153.88-152.15z" fill="#FFF"/>
 </g>
 <metadata>
  <rdf:RDF>
   <cc:Work>
    <dc:format>image/svg+xml</dc:format>
    <dc:type rdf:resource="http://purl.org/dc/dcmitype/StillImage"/>
    <cc:license rdf:resource="http://creativecommons.org/licenses/publicdomain/"/>
    <dc:publisher>
     <cc:Agent rdf:about="http://openclipart.org/">
      <dc:title>Openclipart</dc:title>
     </cc:Agent>
    </dc:publisher>
   </cc:Work>
   <cc:License rdf:about="http://creativecommons.org/licenses/publicdomain/">
    <cc:permits rdf:resource="http://creativecommons.org/ns#Reproduction"/>
    <cc:permits rdf:resource="http://creativecommons.org/ns#Distribution"/>
    <cc:permits rdf:resource="http://creativecommons.org/ns#DerivativeWorks"/>
   </cc:License>
  </rdf:RDF>
 </metadata>
</svg>
